# xmcd
# 
# Track frame offsets:
#     150
#     42442
#     61717
#     95520
#     114567
#     134782
#     179192
# 
# Disc length: 2847
# 
# Revision: 3
# Processed by: cddbd v1.5.2PL0 Copyright (c) Steve Scherf et al.
# Submitted via: fre:ac v1.0.17
# 
DISCID=680b1d07
DTITLE=Frozen Shadows - Dans Les Bras Des Immortels (1999)
DYEAR=0
DGENRE=
TTITLE0=Dans Les Bras Des immortels
TTITLE1=Forsaken Whispers
TTITLE2=Beyond The Pallid Vales
TTITLE3=Of Pain And Insufferable Torment
TTITLE4=Au Seuil Des Ténèbres
TTITLE5=Lunes Funèbres
TTITLE6=Under Horrid Skies
EXTD=
EXTT0=
EXTT1=
EXTT2=
EXTT3=
EXTT4=
EXTT5=
EXTT6=
PLAYORDER=
